<svg width="1920" height="1080" viewBox="0 0 1920 1080" xmlns="http://www.w3.org/2000/svg">
  <defs>
    <linearGradient id="skyGradient" x1="0%" y1="0%" x2="0%" y2="100%">
      <stop offset="0%" style="stop-color:#87CEEB;stop-opacity:1" />
      <stop offset="100%" style="stop-color:#F0F8FF;stop-opacity:1" />
    </linearGradient>
    <linearGradient id="templeGradient" x1="0%" y1="0%" x2="0%" y2="100%">
      <stop offset="0%" style="stop-color:#8B7355;stop-opacity:1" />
      <stop offset="100%" style="stop-color:#5D4E37;stop-opacity:1" />
    </linearGradient>
  </defs>
  
  <!-- Sky Background -->
  <rect width="1920" height="1080" fill="url(#skyGradient)"/>
  
  <!-- Mountains in background -->
  <polygon points="0,600 300,400 600,500 900,350 1200,450 1500,300 1800,400 1920,500 1920,1080 0,1080" fill="#4A5568" opacity="0.3"/>
  
  <!-- Ground -->
  <rect x="0" y="800" width="1920" height="280" fill="#8FBC8F"/>
  
  <!-- Borobudur Temple Structure -->
  <!-- Base Level -->
  <rect x="400" y="650" width="1120" height="150" fill="url(#templeGradient)" rx="10"/>
  
  <!-- Second Level -->
  <rect x="500" y="550" width="920" height="120" fill="url(#templeGradient)" rx="8"/>
  
  <!-- Third Level -->
  <rect x="600" y="470" width="720" height="100" fill="url(#templeGradient)" rx="6"/>
  
  <!-- Fourth Level -->
  <rect x="700" y="410" width="520" height="80" fill="url(#templeGradient)" rx="4"/>
  
  <!-- Fifth Level -->
  <rect x="800" y="360" width="320" height="70" fill="url(#templeGradient)" rx="3"/>
  
  <!-- Central Stupa -->
  <circle cx="960" cy="380" r="60" fill="url(#templeGradient)"/>
  <circle cx="960" cy="370" r="45" fill="none" stroke="#4A5568" stroke-width="2"/>
  
  <!-- Smaller Stupas -->
  <circle cx="860" cy="400" r="25" fill="url(#templeGradient)"/>
  <circle cx="1060" cy="400" r="25" fill="url(#templeGradient)"/>
  <circle cx="810" cy="440" r="20" fill="url(#templeGradient)"/>
  <circle cx="1110" cy="440" r="20" fill="url(#templeGradient)"/>
  
  <!-- Temple Details -->
  <rect x="450" y="680" width="80" height="60" fill="#6B5B73" rx="2"/>
  <rect x="580" y="680" width="80" height="60" fill="#6B5B73" rx="2"/>
  <rect x="710" y="680" width="80" height="60" fill="#6B5B73" rx="2"/>
  <rect x="840" y="680" width="80" height="60" fill="#6B5B73" rx="2"/>
  <rect x="970" y="680" width="80" height="60" fill="#6B5B73" rx="2"/>
  <rect x="1100" y="680" width="80" height="60" fill="#6B5B73" rx="2"/>
  <rect x="1230" y="680" width="80" height="60" fill="#6B5B73" rx="2"/>
  <rect x="1360" y="680" width="80" height="60" fill="#6B5B73" rx="2"/>
  
  <!-- Steps -->
  <rect x="920" y="800" width="80" height="10" fill="#5D4E37"/>
  <rect x="910" y="810" width="100" height="10" fill="#5D4E37"/>
  <rect x="900" y="820" width="120" height="10" fill="#5D4E37"/>
  
  <!-- Trees -->
  <circle cx="200" cy="750" r="40" fill="#228B22"/>
  <rect x="195" y="750" width="10" height="50" fill="#8B4513"/>
  
  <circle cx="1700" cy="730" r="35" fill="#228B22"/>
  <rect x="1696" y="730" width="8" height="45" fill="#8B4513"/>
  
  <circle cx="100" cy="780" r="30" fill="#228B22"/>
  <rect x="96" y="780" width="8" height="40" fill="#8B4513"/>
  
  <!-- Clouds -->
  <ellipse cx="300" cy="200" rx="80" ry="30" fill="white" opacity="0.8"/>
  <ellipse cx="320" cy="180" rx="60" ry="25" fill="white" opacity="0.8"/>
  <ellipse cx="280" cy="180" rx="50" ry="20" fill="white" opacity="0.8"/>
  
  <ellipse cx="1500" cy="150" rx="70" ry="25" fill="white" opacity="0.8"/>
  <ellipse cx="1520" cy="130" rx="55" ry="20" fill="white" opacity="0.8"/>
  
  <!-- Sun -->
  <circle cx="1700" cy="200" r="60" fill="#FFD700" opacity="0.9"/>
  <circle cx="1700" cy="200" r="45" fill="#FFA500" opacity="0.7"/>
</svg>