<svg width="400" height="300" viewBox="0 0 400 300" xmlns="http://www.w3.org/2000/svg">
  <defs>
    <linearGradient id="bambooGradient" x1="0%" y1="0%" x2="0%" y2="100%">
      <stop offset="0%" style="stop-color:#F4E4BC;stop-opacity:1" />
      <stop offset="100%" style="stop-color:#CD853F;stop-opacity:1" />
    </linearGradient>
    <linearGradient id="leafGradient" x1="0%" y1="0%" x2="0%" y2="100%">
      <stop offset="0%" style="stop-color:#90EE90;stop-opacity:0.8" />
      <stop offset="100%" style="stop-color:#228B22;stop-opacity:0.8" />
    </linearGradient>
  </defs>
  
  <!-- Background -->
  <rect width="400" height="300" fill="#F0F8FF"/>
  
  <!-- Palm leaf resonator (fan shape) -->
  <path d="M 200 250 Q 120 200 100 120 Q 120 100 140 110 Q 160 120 180 140 Q 190 160 200 180" fill="url(#leafGradient)" stroke="#228B22" stroke-width="1"/>
  <path d="M 200 250 Q 160 210 150 130 Q 170 110 190 120 Q 200 140 200 180" fill="url(#leafGradient)" stroke="#228B22" stroke-width="1"/>
  <path d="M 200 250 Q 200 200 200 120 Q 220 100 240 120 Q 200 140 200 180" fill="url(#leafGradient)" stroke="#228B22" stroke-width="1"/>
  <path d="M 200 250 Q 240 210 250 130 Q 230 110 210 120 Q 200 140 200 180" fill="url(#leafGradient)" stroke="#228B22" stroke-width="1"/>
  <path d="M 200 250 Q 280 200 300 120 Q 280 100 260 110 Q 240 120 220 140 Q 210 160 200 180" fill="url(#leafGradient)" stroke="#228B22" stroke-width="1"/>
  
  <!-- Bamboo tube resonator -->
  <ellipse cx="200" cy="180" rx="80" ry="15" fill="url(#bambooGradient)" stroke="#8B4513" stroke-width="2"/>
  <rect x="120" y="165" width="160" height="30" fill="url(#bambooGradient)" stroke="#8B4513" stroke-width="2"/>
  
  <!-- Bamboo joints -->
  <line x1="140" y1="165" x2="140" y2="195" stroke="#8B4513" stroke-width="2"/>
  <line x1="170" y1="165" x2="170" y2="195" stroke="#8B4513" stroke-width="2"/>
  <line x1="200" y1="165" x2="200" y2="195" stroke="#8B4513" stroke-width="2"/>
  <line x1="230" y1="165" x2="230" y2="195" stroke="#8B4513" stroke-width="2"/>
  <line x1="260" y1="165" x2="260" y2="195" stroke="#8B4513" stroke-width="2"/>
  
  <!-- Metal strings -->
  <line x1="130" y1="50" x2="130" y2="165" stroke="#C0C0C0" stroke-width="1"/>
  <line x1="145" y1="45" x2="145" y2="165" stroke="#C0C0C0" stroke-width="1"/>
  <line x1="160" y1="40" x2="160" y2="165" stroke="#C0C0C0" stroke-width="1"/>
  <line x1="175" y1="35" x2="175" y2="165" stroke="#C0C0C0" stroke-width="1"/>
  <line x1="190" y1="30" x2="190" y2="165" stroke="#C0C0C0" stroke-width="1"/>
  <line x1="200" y1="25" x2="200" y2="165" stroke="#C0C0C0" stroke-width="1"/>
  <line x1="210" y1="30" x2="210" y2="165" stroke="#C0C0C0" stroke-width="1"/>
  <line x1="225" y1="35" x2="225" y2="165" stroke="#C0C0C0" stroke-width="1"/>
  <line x1="240" y1="40" x2="240" y2="165" stroke="#C0C0C0" stroke-width="1"/>
  <line x1="255" y1="45" x2="255" y2="165" stroke="#C0C0C0" stroke-width="1"/>
  <line x1="270" y1="50" x2="270" y2="165" stroke="#C0C0C0" stroke-width="1"/>
  
  <!-- Tuning pegs -->
  <circle cx="130" cy="50" r="3" fill="#8B4513"/>
  <circle cx="145" cy="45" r="3" fill="#8B4513"/>
  <circle cx="160" cy="40" r="3" fill="#8B4513"/>
  <circle cx="175" cy="35" r="3" fill="#8B4513"/>
  <circle cx="190" cy="30" r="3" fill="#8B4513"/>
  <circle cx="200" cy="25" r="3" fill="#8B4513"/>
  <circle cx="210" cy="30" r="3" fill="#8B4513"/>
  <circle cx="225" cy="35" r="3" fill="#8B4513"/>
  <circle cx="240" cy="40" r="3" fill="#8B4513"/>
  <circle cx="255" cy="45" r="3" fill="#8B4513"/>
  <circle cx="270" cy="50" r="3" fill="#8B4513"/>
  
  <!-- Top frame -->
  <rect x="120" y="20" width="160" height="8" fill="url(#bambooGradient)" stroke="#8B4513" stroke-width="1" rx="4"/>
  
  <!-- Decorative elements -->
  <path d="M 200 15 Q 190 10 200 5 Q 210 10 200 15" fill="#8B4513"/>
  
  <!-- Leaf details -->
  <path d="M 150 140 Q 140 130 135 125" fill="none" stroke="#228B22" stroke-width="1"/>
  <path d="M 170 150 Q 160 140 155 135" fill="none" stroke="#228B22" stroke-width="1"/>
  <path d="M 230 150 Q 240 140 245 135" fill="none" stroke="#228B22" stroke-width="1"/>
  <path d="M 250 140 Q 260 130 265 125" fill="none" stroke="#228B22" stroke-width="1"/>
  
  <!-- Text -->
  <text x="200" y="285" text-anchor="middle" font-family="Arial, sans-serif" font-size="16" font-weight="bold" fill="#8B4513">SASANDO</text>
</svg>